<svg width="12" height="14" viewBox="0 0 12 14" fill="none" xmlns="http://www.w3.org/2000/svg">
<path fill-rule="evenodd" clip-rule="evenodd" d="M5.72727 14C5.72727 14 11.4545 10.1818 11.4545 5.72727C11.4545 4.20831 10.8511 2.75155 9.77707 1.67748C8.70299 0.603407 7.24624 0 5.72727 0C4.20831 0 2.75155 0.603407 1.67748 1.67748C0.603407 2.75155 0 4.20831 0 5.72727C0 10.1818 5.72727 14 5.72727 14ZM7.63634 5.72725C7.63634 6.78161 6.78161 7.63634 5.72725 7.63634C4.67288 7.63634 3.81816 6.78161 3.81816 5.72725C3.81816 4.67288 4.67288 3.81816 5.72725 3.81816C6.78161 3.81816 7.63634 4.67288 7.63634 5.72725Z" fill="#111417" fill-opacity="0.15"/>
</svg>
