<svg xmlns="http://www.w3.org/2000/svg" xmlns:xlink="http://www.w3.org/1999/xlink" xml:space="preserve" width="360" height="730" viewBox="0 0 95.25 193.146"><defs><linearGradient id="c"><stop offset="0" style="stop-color:#8e7f93;stop-opacity:1"/><stop offset="1" style="stop-color:#544b58;stop-opacity:1"/></linearGradient><linearGradient id="b"><stop offset="0" style="stop-color:#000;stop-opacity:1"/><stop offset="1" style="stop-color:#212121;stop-opacity:1"/></linearGradient><linearGradient id="a"><stop offset="0" style="stop-color:#d9d7de;stop-opacity:1"/><stop offset=".08" style="stop-color:#43384a;stop-opacity:1"/><stop offset=".14" style="stop-color:#7b6e81;stop-opacity:1"/><stop offset=".86" style="stop-color:#7b6e81;stop-opacity:1"/><stop offset=".928" style="stop-color:#5f5365;stop-opacity:1"/><stop offset="1" style="stop-color:#b0a8b6;stop-opacity:1"/></linearGradient><linearGradient xlink:href="#a" id="e" x1="2.568" x2="2.568" y1="51.357" y2="65.712" gradientUnits="userSpaceOnUse"/><linearGradient xlink:href="#a" id="d" x1="2.159" x2="2.159" y1="37.49" y2="44.488" gradientUnits="userSpaceOnUse"/><linearGradient xlink:href="#a" id="g" x1="95.039" x2="95.039" y1="61.462" y2="84.161" gradientUnits="userSpaceOnUse"/><linearGradient xlink:href="#a" id="f" x1="3.037" x2="3.037" y1="70.032" y2="84.387" gradientUnits="userSpaceOnUse"/><linearGradient xlink:href="#b" id="p" x1="39.383" x2="39.383" y1="1.398" y2="2.096" gradientUnits="userSpaceOnUse"/><linearGradient xlink:href="#c" id="j" x1="73.446" x2="73.446" y1=".265" y2="1.398" gradientUnits="userSpaceOnUse"/><linearGradient xlink:href="#c" id="k" x1="73.446" x2="73.446" y1=".265" y2="1.398" gradientTransform="matrix(1 0 0 1.24025 -52.948 -94.596)" gradientUnits="userSpaceOnUse"/><linearGradient xlink:href="#c" id="l" x1="73.446" x2="73.446" y1=".265" y2="1.398" gradientTransform="matrix(1 0 0 1.24025 -52.948 .654)" gradientUnits="userSpaceOnUse"/><linearGradient xlink:href="#c" id="m" x1="73.446" x2="73.446" y1=".265" y2="1.398" gradientTransform="translate(-95.25 -193.146)" gradientUnits="userSpaceOnUse"/><linearGradient xlink:href="#c" id="n" x1="73.446" x2="73.446" y1=".265" y2="1.398" gradientTransform="matrix(1 0 0 1.24025 -246.094 .654)" gradientUnits="userSpaceOnUse"/><linearGradient xlink:href="#c" id="o" x1="73.446" x2="73.446" y1=".265" y2="1.398" gradientTransform="matrix(1 0 0 1.24025 -246.094 -94.596)" gradientUnits="userSpaceOnUse"/><filter id="h" width="1.009" height="1.004" x="-.005" y="-.002" style="color-interpolation-filters:sRGB"><feGaussianBlur stdDeviation=".177"/></filter><filter id="i" width="1.009" height="1.004" x="-.005" y="-.002" style="color-interpolation-filters:sRGB"><feGaussianBlur stdDeviation=".176"/></filter><filter id="q" width="1.385" height="1.165" x="-.192" y="-.082" style="color-interpolation-filters:sRGB"><feGaussianBlur stdDeviation=".031"/></filter><filter id="r" width="1.218" height="1.165" x="-.109" y="-.082" style="color-interpolation-filters:sRGB"><feGaussianBlur stdDeviation=".031"/></filter></defs><path d="M.738 37.289h1.408a.22.22 0 0 1 .221.22v6.96a.22.22 0 0 1-.22.22H.737a.22.22 0 0 1-.221-.22v-6.96a.22.22 0 0 1 .221-.22z" style="fill:#443c46;fill-opacity:1;stroke-width:.271631;stop-color:#000" transform="translate(-.517)"/><path d="M.726 37.49h1.433c.115 0 .208.093.208.21v6.58c0 .115-.093.208-.208.208H.726a.208.208 0 0 1-.209-.209V37.7c0-.116.093-.209.209-.209z" style="fill:url(#d);stroke-width:.264137;stop-color:#000;fill-opacity:1" transform="translate(-.517)"/><path d="M1.148 51.156h1.408a.22.22 0 0 1 .22.22v14.316a.22.22 0 0 1-.22.221H1.148a.22.22 0 0 1-.222-.22V51.376a.22.22 0 0 1 .222-.221z" style="fill:#443c46;fill-opacity:1;stroke-width:.271631;stop-color:#000" transform="translate(-.926)"/><path d="M1.135 51.357h1.433c.116 0 .209.093.209.209v13.937c0 .116-.093.209-.209.209H1.135a.208.208 0 0 1-.209-.21V51.567c0-.116.094-.21.21-.21z" style="fill:url(#e);fill-opacity:1;stroke-width:.264137;stop-color:#000" transform="translate(-.926)"/><path d="M1.617 69.83h1.408a.22.22 0 0 1 .22.221v14.316a.22.22 0 0 1-.22.22H1.617a.22.22 0 0 1-.221-.22V70.05a.22.22 0 0 1 .22-.22z" style="fill:#443c46;fill-opacity:1;stroke-width:.271631;stop-color:#000" transform="translate(-1.396)"/><path d="M1.604 70.032h1.433c.116 0 .209.093.209.209v13.936c0 .116-.093.21-.209.21H1.604a.208.208 0 0 1-.208-.21V70.241c0-.116.093-.21.208-.21z" style="fill:url(#f);stroke-width:.264137;stop-color:#000;fill-opacity:1" transform="translate(-1.396)"/><path d="M95.026 61.26h-1.408a.22.22 0 0 0-.221.222v22.66a.22.22 0 0 0 .221.22h1.408a.22.22 0 0 0 .221-.22v-22.66a.22.22 0 0 0-.22-.221z" style="fill:#443c46;fill-opacity:1;stroke-width:.271631;stop-color:#000" transform="translate(.003)"/><path d="M95.039 61.462h-1.433a.208.208 0 0 0-.209.209v22.281c0 .116.093.21.209.21h1.433a.208.208 0 0 0 .208-.21V61.671a.208.208 0 0 0-.208-.21z" style="fill:url(#g);stroke-width:.264137;stop-color:#000;fill-opacity:1" transform="translate(.003)"/><g transform="translate(-306.692 72.478)"><g transform="translate(151.344 -72.478)"><rect width="93.286" height="192.617" x="156.33" y=".265" ry="16.195" style="fill:#e8e4ea;fill-opacity:1;stroke:#443c46;stroke-width:.529167;stroke-dasharray:none;stroke-opacity:1;paint-order:stroke fill markers;stop-color:#000"/><rect width="92.093" height="191.568" x="156.927" y=".789" ry="15.974" style="fill:#49454b;fill-opacity:1;stroke:none;stroke-width:.264583;stroke-dasharray:none;stroke-opacity:1;paint-order:normal;filter:url(#h);stop-color:#000"/><rect width="92.093" height="191.568" x="156.927" y=".789" ry="15.974" style="fill:#7b6e81;fill-opacity:1;stroke:none;stroke-width:.264583;stroke-dasharray:none;stroke-opacity:1;paint-order:normal;stop-color:#000"/><rect width="90.475" height="190.35" x="157.736" y="1.398" ry="15.064" style="fill:#000;fill-opacity:1;stroke:none;stroke-width:.264583;stroke-dasharray:none;stroke-opacity:1;paint-order:normal;filter:url(#i);stop-color:#000"/><rect width="90.475" height="190.35" x="157.736" y="1.398" ry="15.064" style="fill:#000;fill-opacity:1;stroke:none;stroke-width:.264583;stroke-dasharray:none;stroke-opacity:1;paint-order:normal;stop-color:#000"/></g><rect width="85.247" height="184.475" x="311.694" y="-68.142" ry="11.487" style="fill:#292929;fill-opacity:1;stroke:none;stroke-width:3.18558;stroke-dasharray:none;stroke-opacity:1;paint-order:normal;stop-color:#000"/></g><path d="M73.446.265h1.259v1.133h-1.259z" style="fill:url(#j);fill-opacity:1;stroke:none;stroke-width:.185714;stroke-dasharray:none;stroke-opacity:1;paint-order:normal;stop-color:#000"/><path d="M20.498-94.268h1.259v1.406h-1.259z" style="fill:url(#k);fill-opacity:1;stroke:none;stroke-width:.206823;stroke-dasharray:none;stroke-opacity:1;paint-order:normal;stop-color:#000" transform="rotate(90)"/><path d="M20.498.982h1.259v1.406h-1.259z" style="fill:url(#l);fill-opacity:1;stroke:none;stroke-width:.206823;stroke-dasharray:none;stroke-opacity:1;paint-order:normal;stop-color:#000" transform="matrix(0 1 1 0 0 0)"/><path d="M-21.804-192.881h1.259v1.133h-1.259z" style="fill:url(#m);fill-opacity:1;stroke:none;stroke-width:.185714;stroke-dasharray:none;stroke-opacity:1;paint-order:normal;stop-color:#000" transform="scale(-1)"/><path d="M-172.648.982h1.259v1.406h-1.259z" style="fill:url(#n);fill-opacity:1;stroke:none;stroke-width:.206823;stroke-dasharray:none;stroke-opacity:1;paint-order:normal;stop-color:#000" transform="rotate(-90)"/><path d="M-172.648-94.268h1.259v1.406h-1.259z" style="fill:url(#o);fill-opacity:1;stroke:none;stroke-width:.206823;stroke-dasharray:none;stroke-opacity:1;paint-order:normal;stop-color:#000" transform="matrix(0 -1 -1 0 0 0)"/><path d="M37.36 1.398c1.052 0 1.024.216 1.242.462.159.179.363.236.766.236h16.514c.403 0 .607-.057.765-.236.218-.246.191-.462 1.243-.462z" style="fill:url(#p);fill-opacity:1;stroke:none;stroke-width:.264583px;stroke-linecap:butt;stroke-linejoin:miter;stroke-opacity:1"/><rect width="27.198" height="8.1" x="34.026" y="6.703" ry="4.05" style="fill:#000;fill-opacity:1;stroke:none;stroke-width:.264583;stroke-dasharray:none;stroke-opacity:1;paint-order:normal;stop-color:#000"/><g transform="matrix(1.22578 0 0 1.22578 -12.78 -6.132)"><circle cx="57.213" cy="13.775" r="1.312" style="color:#000;display:inline;overflow:visible;visibility:visible;fill:#0a0a0a;fill-opacity:1;fill-rule:nonzero;stroke:none;stroke-width:.025818;stroke-linecap:round;stroke-linejoin:miter;stroke-miterlimit:4;stroke-dasharray:none;stroke-dashoffset:0;stroke-opacity:1;marker:none;enable-background:accumulate"/><circle cx="57.213" cy="13.775" r=".809" style="color:#000;display:inline;overflow:visible;visibility:visible;fill:#0a0d13;fill-opacity:1;fill-rule:nonzero;stroke:none;stroke-width:.0198752;stroke-linecap:round;stroke-linejoin:miter;stroke-miterlimit:4;stroke-dasharray:none;stroke-dashoffset:0;stroke-opacity:1;marker:none;enable-background:accumulate"/><circle cx="57.213" cy="13.775" r=".617" style="color:#000;display:inline;overflow:visible;visibility:visible;fill:#091427;fill-opacity:1;fill-rule:nonzero;stroke:none;stroke-width:.0198752;stroke-linecap:round;stroke-linejoin:miter;stroke-miterlimit:4;stroke-dasharray:none;stroke-dashoffset:0;stroke-opacity:1;marker:none;enable-background:accumulate"/><path d="M-47.128 5.43c-.098.01-.236.16-.246.451-.01.292.117.451.19.451.07 0 .368-.425.056-.902z" style="display:inline;fill:#235a91;fill-opacity:.556075;fill-rule:evenodd;stroke:none;stroke-width:.0264583;stroke-linecap:butt;stroke-linejoin:miter;stroke-miterlimit:4;stroke-dasharray:none;stroke-opacity:1;filter:url(#q)" transform="matrix(.75119 0 0 .75119 92.191 9.283)"/><path d="M-46.43 5.328c-.153.047-.182.295-.177.437.006.142.207.514.45.431.241-.083.283-.39.182-.596-.1-.207-.283-.355-.454-.272z" style="display:inline;fill:#235a91;fill-opacity:.556075;fill-rule:evenodd;stroke:none;stroke-width:.0264583;stroke-linecap:butt;stroke-linejoin:miter;stroke-miterlimit:4;stroke-dasharray:none;stroke-opacity:1;filter:url(#r)" transform="matrix(.75119 0 0 .75119 92.191 9.283)"/></g></svg>